<?xml version="1.0" encoding="UTF-8"?>
<svg version="1.1" viewBox="0 0 1254 1254" width="1254" height="1254" xmlns="http://www.w3.org/2000/svg">
<path transform="translate(0)" d="m0 0h1254v1254h-1254z" fill="#FCFCFC"/>
<path transform="translate(634,147)" d="m0 0h33l38 2 30 5 24 6 12 4 16 5 27 11 16 7 7 3 13 8 6 4 7 6 14 8 11 10v2l4 2 10 8 5 7 8 7 10 14 7 8 7 9 5 10 6 9 5 9 8 13 4 7 14 35 6 29 4 20 2 20 1 30-2 25-3 17-3 21-5 23-2 8-5 12-7 20-4 11-6 10-8 15-6 7-7 12-9 11-4 4-6 8-5 6-5 5-4 2-1 3-6 5-5 8-7 7-4 6h-2l-2 4-11 15-5 6-11 21-7 21-2 15v36l2 22 6 24 7 19 3 12 5 12 8 20 3 7 12 23 5 13 5 9 3 7 3 3 1 8-5-5-3-4-1-6-4-2-15-24-12-21-14-29-8-21-8-25-3-13-3-21-1-9v-29l3-21 7-24 7-16 6-11 11-16 9-11 9-10 7-9 12-13 9-11 10-12 22-33 13-24 11-25 6-16 6-21 4-21 3-25v-27l-3-26-5-25-7-25-2-4 7 23 6 26 2 17 1 18v16l-2 23-5 28-5 19-8 23-9 20-11 21-12 19-8 10-12 16-13 15-9 9-6 9-5 4-6 8-13 17-8 13-10 18-6 15-4 14-3 17-1 10v27l3 22 6 25 6 20 8 20 11 24 13 24 13 21 12 18 7 10-1 2-9-7-9-11-13-15-8-10-11-18-8-13-6-12-5-8-5-15-7-15-6-25-2-7-3-26-1-18v-15l3-21 3-16 6-18 6-15 10-16 6-10 9-10 4-6 4-1 2-5 7-8 3-1 2-5 7-8 7-7 6-8 8-8 4-6 5-6 4-8 5-6 6-9 4-9 6-7 2-7 5-12 4-5 4-16 4-9 1-14 4-13 2-16 1-11v-21l-1-21-3-18-4-16-1-10-4 1-9 11-9 8-9 4h-10l-7-1-8 7-6 10-8 26-8 32v15l3 5 5 2 9-1 6-4 3-4v-13l12-22 2-6 1-9 1-2 6 2 4 3-5-1-4-2v6l1-4 10 3 15 2 1 4-5 18 7-21 1 3-7 22-5 9-7 8-6 4-3 1h-15l-7 9-7 4-4 1h-19l-12 5-10 8-11 9-15 9-17 6-6 1 8 4 18 7 14 3h7l6-9 6-4 10-4 15-8 9-7 5 1 5 6-4-2-2-2-5 1 3-1 11 9 8 6-2 1-11-8-5-2h-3l-2-1v2l-12 8 9-5 2-2 3 1-10 7 6 4 3 5 4-1v2l4-1-4 4-6 4 18-10 2 1-16 12-3 2 7-4 2 1-10 6-11 4h-15l-10-5-4-4-6-1h-13l-16-4-27-9-19-1-16 3-12 5-13 8-6 5-10 14-5 14-1 5-1 22h2l2-5 7-11 13-13 11-7 8-4 9-3h22l7 1h22l10-3 3 1-12 6-11 2h-34l-14 5-13 9-8 8-9 14-6 14-4 19-3 18-6 22-6 19-2 11v24l5 18 8 16 8 20 5 20 3 27 5 15 9 14 11 12 13 11 13 9 3 5-5-1-16-8-13-8-9-8-7-6-7-9v8l3 12 8 16 7 9 4 5v2l4 2 12 10 30 20 14 12 8 9 8 11-1 2-10-12 9 12-1 2-12-12-12-11-17-10-23-14-14-11-11-11-9-13-2-1v11l2 18 2 12 8 20 8 14 4 6-4 1-8-8-7-10-8-14-6-20-2-15h-2l-2 9-5 14-4 13-2 11v26l1 10-2-3-3-10 2 13-3-4-4-13-1-30-8 8-7 8-8 8-17 12-14 9-13 8-8 5-9 6-14 11-7 6-4 5h-2l1-5 5-3 3-5 8-8 5-3 5-5 10-6 8-6 15-9 19-14 10-9 13-13 1-3-15 16-7 6-16 12-14 8-10 7-7 3-10 9-4 1 1-4 7-6 8-6 9-6 8-6 11-7 12-10 8-7 11-11 7-9 10-19 4-9 3-12 2-23-3-11-9 25-6 10-8 11-10 10-4 5-11 9-14 12-13 12-3 1-2-1 2-5 7-8 16-17 9-9 7-8 7-9 8-13 7-21 2-17v-10l-3-18-6-19-5-15-5-21-2-18v-16l2-17 6-37 3-19v-22l-4-17-6-14-9-12-5-6-10-8-14-12-9-11-10-16-9-10-11-8-11-5-9-3-21-3-48-1-15-4-9-1-14 3-12 6h-2l-1 6-5 9-5 2v-2l-13 5h-17l-12-3-17-8-2-4 11-7 7-6 8-10h-2l2-4 5 3 10 5 8 2 15 1 6 5 5-1 18-9-13-9-6-3-18-4-12-5-11-8-9-9-8-13-4-11-2-11v-13l3-15 8-15 5-8 4-12-13-1-8-4-1-2h3l-6-5-4-8v-13l4-12 1-4 6-9 3-4h2l3 17 6 9 6 4-2 1-3-1 16 7 3 7-1 5-7 10h-2l-3 13 10-5 4-1h9l9 3 7 8 1 9h-2l-7-8-5-2h-12l-8 4-5 5-7 10-3 9-1 5v17l3 12 7 13 11 11 16 8 16 3h33l11 3 4 2-4-11-5-10-5-4-8-4-9-8-6-10-4-10-3-16v-23l4-17v-20l-4-13-1-13-1-11-4-14-3-5-10-1-8-6-7-11-2-5 1-6-1-5v-8l6-4v-3l5-1v-3l5-1 3-3v-3l4-3h2l1 16 4 13 5 10 1 4v8l-4 8 1 5 5 11 2 3 9-14 7-9 6-13 4-11-2-4v-10l10-18 4-11 2-15 3-1 3 2h-5l1 2 3-1 12 3 10 1-1 7 1 3-4 16-7 14-9 10-8 4-8 1-6 12-5 12-10 14-3 6 11-4 7-1 2-6 8-7 19-10 7-1 4-1 4 5h3l1 5 6 2v3l1 3-2 1 2 2-9 4-15 9-11 4h-7l-8-4-4-4-7 1-9 4-5 5-1 3v12l6 19 11-11 10-6 8-2 10 1 8 5 4 5 2 7v10l-5 14-7 10-13 13-13 8-10 5-5 1 2 11 6 12 7 7 11 4h7l9-4 8-6 7-9 6-12h2v12l-5 12-6 8-7 6-6 4-3 8 1 12 6 10 8 6 10 5 15 3 33 3-8-10-8-15-5-15-5-17-6-27-6-37-6-34-1-3v-11h3l6 8 4 14 4-13 6-11 4-6 3-11 3-15v-12l-5-8-6-8 1-3 11 12v-9l-3-12-1-18-7-8v-7l5-12 8-17 4-16v-15l2-1 14 6 7 1 8 3 9 3-1 6-4 9-5 15-5 10-7 11-9 9-9 4-4 2v12l4 17 1 14 12-15 11-9 3-3 1-14 6-12 10-11 9-7 8-8h2l3 13-1 4 4 10 1 3 2-2-1 4-8 7-12 13-7 4h-14l-17 17-8 14-5 18-1 8 2-1h11l6 3 7 8 2 6-1 10h-2l-6-11-6-4-7-1-8 3-8 9-4 9-3 12-1 16 3 26 6 31 6 22 6 16 2 4v-9l2-10 4-11 2-1-2 11-1 13 2 12 6 12 7 7 4 5 8 7 2 2 2-18 2-12v-8l-3-10-4-6-6-10-1-5 3 3 4 7 3 2 1-8 2 2 1 10 6 12 1 5 7-12 4-12v-16l-5-9-12-7-8-8-4-8-3-10-1-7v-16l3-18 5-15 6-12 8-11 9-9 10-6 6-2h12l8 4 5 6 2 6v9l-3 10-7 12-12 12-13 8-16 6-4 1h-7l1 15 3 12 5 8 8 5 3 1h9l12-5 11-9 9-11 8-15 4-15 3-24 1-17v-21l-2-16-5-16-7-11-4-4-11-4-7-5v-2l4 2 13 5-6-14 1-4 11 20 6 7v-33-2l-8-6-5-5 1-8-2 6h-1l2-22v-12l-3-14-6-16 2-1 7 3-3 1-2-1 3 9 4 16-2-11-4-10v-2l6 1 27 11 3 9 2 10-3-16-1-3-2-2 4 1 3 11 1 6v22l-3 12-4 8-4 4-2-1-4 1v3l-1 21 2 13 8 24 5-9 7-8 5-5 7-9 5-10-2-7v-8l6-9 6-8 5-11 1-4v-11l-1-8 2-1 14 1v1h-14l1 4 1 13v-15l16-2 10-5h3l2 11v22l-5 15 4-10 2-9v-17l-2-16-2-1h3l2 7 2 14v9l-2 12-5 13-10 13-11 8-5 2-16 1-4 5-7 11-11 12-7 14-1 5v18l4-6 7-7 12-6h13l10 5 8 9 6 16 1 7v23l-3 16-5 16-7 14-9 12-10 8-7 5-7 12-6 24-6 16-9 17-4 6 19-9 16-9 10-9 8-10 8-14 6-15 6-23 7-40 3-27 2-19v-14l3-12v-11l-4-14 1-3 5 12 2 6 1 12-1 5v12l7-14 12-15 8-16 1-7-2-5v-10l4-8 9-10 13-10 7-8 1 3 1-2 3 1 1 4 2-1 2 9v15l-2 3 5-5-1 4-12 13-12 9-5 2-9 1-6 15-1 2 10-3 18-1-3 3-16 3-12 6-9 10-6 12-4 15-1 8 8-9 10-6 3-1h12l8 4 6 9 1 3v10l-3 6-2-4-4-11-6-5-3-1h-7l-8 4-7 7-7 14-4 15-8 44-7 23-10 21-9 12-11 11h7l10-3 6-3 2 1-9 7-13 4-12 3-15 8-12 6-9 7-8 10-5 10-1 5v14l6 16 7 10 7 11 2 4 1-15 5-17 8-14 9-10 9-8 13-8 8-5 9-7 8-11 5-11 5-15h1v7l-3 14v2l15-8 2 1-10 7-8 6-10 13h4l5-1 35-2 17-4 15-8 7-8 1-3v-8l-5-5-3-8-1-13-9 6-6 3-5 1h-12l-10-5-5-6-3-8v-15l4-11 6-9 9-9 16-8 8-2h14l11 4h3l4-13v-12l-3-8-5-4-2-1h-11l-10 5-3 3-3-1 5-10 10-6 8-1 12 3 8 7 5 10 1 12-4 19-7 19-10 25-4 17 1 9 4 6 7 3 8-2 5-4v-14l3-17 7-23 8-24 3-14 1-7v-19l-3-11-6-9-3-4 1-3 6 6v-16l-3-3-6-4-1-3-1-25-3-11-4-8v-2h8l7 1v2l8-1v-2l8-1 1 6-2-4v3l3 9 2-2 2 8v15l-3 10-4 6-6 5v20l3 9 4-8 1 4-1 7 1 33 8-7 2-1v-10l4-8 12-12 5-4 7-11 4-6h2l7 15-1 3 5 12-1 2 1-4-2-6h2l-1-5-2-4-2-2-1-10-4-7-4-11-5-8-4-8-7-13-8-11-7-8-12-16-7-6-4-7v-2l-5-2-12-11-10-9-8-5-4-5-7-5-12-6-8-6-12-7-8-5-10-4-7-4-12-4-5-4-9-2-5-3-3-3-13-1-19-5-17-3-6-2-8-1-21-1h-36l-32 4-6 2-1 2-25 5-14 4-12 5-15 5-15 6-38 19-6 5-15 8-11 8-10 7-12 12-8 6-6 7-5 5-14 16-5 6-11 16-7 12-5 12-4 6-9 24-3 13-4 19-2 25v20l5 27 3 10 1 18-4 20-4 7-3 10-6 10-6 11-6 10-7 8-5 5-4 7-4 4-4 7-5 5-3 9v7l5 5 10 7 11 3 8 5 9 11 2 7-1 10-2 8-5 9 1 6 4 6 8 8 9 4 1 5-10 9-3 9 3 6 8 9 7 9 2 7v41l5 13 5 4 4 2v2l12 3h30l19-3 12-3 17-4 11-1 12-4 15-3 16-5 5-2 18-3 15-6 18-6 12-7 6-3h6l3-1-2 4-8 7-11 9-9 6-8 5-6 3-10 8-7 6-2 5v8l3 9 5 11 8 30 2 16 2 11 2 26v14l-2 22-4 17-4 9-2 11-13 23-8 11-4 2 2-6 9-16 8-21 5-19 2-18v-22l-3-31-6-29-7-23-8-17-9-11-17-8-5-1h-19l-13 2-2 1 10-2h24l13 4 8 6 8 10 8 18 5 16 5 19 5 31 1 14v24l-3 23-4 15-8 20-7 13-1-3 4-8 2-7 3-1 1-8 3-11 3-21 1-14-2-29-1-9-1-11-2-3-2-15-5-16-4-13-8-15-7-7-9-5-12-4h-16l-27 3-5 2-35 4h-14l-13-2-12-4-13-10-7-9-4-11-1-9v-30l-3-10-9-16-5-4-2-4v-16l2-8-7-9-6-14v-9l3-9v-16l-4-6-12-6-12-5-7-6-5-4-4-8v-16l5-8 2-1-1 6v12l4 9 8 7 15 6 11 4 7 5 4 9v10l-7 16-1 4v7l7 8 9 6-1-1-8-6-4-6-1-3v-8l6-16 1-11-3-8-1-3-5-2-12-6-10-3-13-9-4-9v-8l7-14 13-18 7-11 1-2-12 17-5 7-2-1-1 6-3 3-5 1 2-6 4-6 3-6 8-12 8-18 5-8 8-20 5-25v-11l-2-14-2-15-1-4-1-17v-25l2-19 4-18 2-14 6-24 5-13 6-12 8-15 5-8 9-15 9-11 4-5 6-8 17-17 7-8 9-7h2v-2h2v-2l11-8 9-5 9-7 10-4h2v-2l25-14 17-6 25-9 51-11 3-1 41-3z" fill="#7CDDD9"/>
<path transform="translate(627,131)" d="m0 0h54l19 2 7 1 10 1h7l12 3 11 1 5 1h4v2l5-1 8 3 12 3 24 8 10 3 22 11 7 3v2l5 2 3 1v2l5 2 7 4 9 6 8 6 13 11 11 9v2l4 2 5 5 5 6 5 4 4 5 3 5 5 5 8 9 2 5 7 11 8 11 3 5v2l2 1 6 11 1 4 2 1 2 6v2h2l3 9 6 16 5 16 2 9 4 10 2 9 3 22 2 19v12l1 4v21l-1 17-2 23-1 7-3 9-3 11-6 29-7 21-7 15-3 9-6 12-6 7-4 9-5 7-1 3-4 4-2 3h-2l-2 5-7 10-5 4-4 7h-2l-1 4-4 4h-2l-1 4-8 8h-2l-2 5-8 10-7 8-6 5-3 6-3 4-3 6-5 5-7 10-4 15-3 9-3 13-1 10-1 3v15l2 10 1 13 4 17 7 24 4 12v2l2 1 2 5 2 10 7 16 5 12 8 14 8 17 3 5 4 10 7 12 3 6v3h2l22 44 1 9-6-1-12-8-15-15-11-10-9-6-2-5-4-2-2-4h-2l-6-8-8-8v-2h-2l-4-6-7-10v-2h-2l-3-5-8-10-2-5h-2l-8-16-9-16-4-11v-2l-2-1-4-9v-2l-2-1-2-10-2-7-4-10-3-17-2-15-1-9-1-4-1-13v-15l2-16 1-7h2l1-12 5-17 4-11 2-5 6-12 2-5h2v-3h2l2-5 2-4h2l2-5 7-9 9-11 12-12h2l2-4 2-5 8-7 9-10 7-8h2l2-4 15-22 4-5 5-5 4-9 7-9v-4l-9 2-10 5-10 7-13 7-11 2h-8l-3-2 15-1 11-4 8-5-9 5-2-1 11-7 11-8-16 8-5 2 4-4 6-4-4 1v-2l-3 1-3-6-6-3 5-5 5-3-4 2-8 5-2-1 11-8h2v-2l4 1 3-1 14 10-7-6-10-8-5 2 3-4 5 1 3 2-4-4-5 1-11 8-16 8-10 4-4 5-4 6h-7l-17-4-25-10 2-2 13-3 12-5 16-10 11-10 11-7 8-3h19l8-3 5-5 5-6h15l6-3 7-6 6-10 4-11 3-11-7 21-1-3 6-20v-3l-15-2-10-4-1 9h-1l1-11 5 1-6-3-1 11-5 12-9 16v13l-6 7-8 3-8-1-5-5-1-2v-15l9-36 7-22 6-10 9-8 7 1h10l10-5 10-9 7-9 2-1 2 1 5 22 3 14 1 8 1 21v21l-2 22-3 12-2 6-1 14-5 12-3 13-6 9-4 9-2 7-7 9-3 7-7 11-6 8-3 6-6 7-21 24-7 7-4 7-8 7-4 7-4 2-8 11-7 8-4 8-9 14-8 20-4 13-4 21-2 16v15l2 26 2 18 5 19 3 13 9 20 4 12 8 13 6 12 11 17 7 11 9 10 18 22 8 6-6-10-8-11-11-18-12-20-13-25-12-28-7-22-6-24-3-17-1-10v-27l3-21 4-17 5-13 8-16 11-19 9-11 8-11 5-6 5-4 6-9 11-11 9-11 20-26 13-21 12-23 10-24 7-21 7-34 2-15 1-15v-16l-2-27-3-18-7-27-4-12 1-4 7 21 7 30 3 21 1 12v27l-3 25-6 29-8 24-9 21-9 19-11 19-17 25-8 10-12 14-7 8-9 10-7 9-9 10-11 15-10 16-8 17-7 23-3 17-1 8v29l2 18 5 25 8 25 6 16 11 24 11 21 9 15 12 19 4 2 2 7 5 7-1-7-5-6-3-8-6-12-4-10-10-19-3-7-10-25-4-9-4-16-5-13-6-24-2-22v-36l2-15 5-15 4-10 10-19 8-9 8-11 6-7 7-8 4-5 4-6 5-4 7-8 6-5 4-6 6-8 5-5 7-9 7-12 6-7 8-16 5-8 8-24 6-15 2-4 3-16 5-24 2-15 3-20 1-23-1-27-2-17-4-20-6-29-11-28-5-11-7-11-8-14-7-11-6-11-11-12-8-12-8-9-5-4-4-6-9-7-5-5-12-10-14-8-8-7-10-6-8-5-10-4-27-11-12-5-14-4-19-6-21-5-26-4-38-2h-33l-29 1-41 3-16 4-20 4-21 5-41 15-21 12h-2v2l-6 3-8 3-8 7-8 4-9 7h-2v2h-2v2l-11 8-15 16-4 4h-2l-2 4-6 8-9 11-9 13-8 14-5 8-12 24-5 17-5 21-2 14-3 13-2 19v28l1 14 2 9 2 20 1 4v11l-5 25-8 20-5 8-8 18-8 12-5 9-4 7-1 2 6-3 2-5 1-3 2 1 13-19 7-10 1 2-8 12-13 19-7 11-3 7v8l4 9 12 8 12 4 12 6 5 5 3 8-1 11-6 16v8l3 6 5 5 9 6-2 1-10-6-8-8-1-2v-7l5-13 3-7v-10l-4-9-10-6-15-5-10-5-7-7-3-8v-12l1-5-5 8v16l5 9 9 7 8 4 7 3 11 6 4 6v16l-3 9v9l7 16 6 7-2 8v16l3 5 5 5 8 14 3 10v30l2 12 4 9 7 9 13 9 13 4 10 1h14l35-4 5-2 27-3h16l15 5 9 7 7 8 8 17 2 8 5 16 2 15 2 3 1 13 2 17 1 20-2 21-3 18-4 14-3 3-2 7-3 7 8-15 8-22 4-22 1-10v-24l-2-21-5-28-7-25-6-16-6-11-8-9-10-5-8-2h-24l-10 2h-6l4-2 7-2 10-1h19l10 3 13 7 9 11 8 17 7 23 6 29 3 31v22l-2 18-6 22-8 20-10 18-1 2 5-4 11-18 8-14 3-14 4-10 4-20 1-15v-14l-2-26-3-15-2-16-6-21-3-10-5-11-1-4v-8l3-6 8-7 9-7 11-6 11-7 10-9 9-7 2-3-5 1-6 1-13 8-14 5-19 7-6 2-14 2-14 5-16 4-13 3-5 2-16 2-28 7-15 2h-30l-12-4v-2l-6-2-4-4-5-13v-41l-3-9-14-16-3-7 4-9 7-7 2-1v-5l-9-3-4-4-7-8-3-5 1-6 5-9 2-11-1-9-3-6-8-9-8-4-9-2-14-10-2-3v-7l4-11 3-3h2l2-5 4-6h2l2-5 4-6 9-9 6-10 11-20 3-8 4-9 2-5 3-16-1-18-4-14-4-23v-20l2-25 4-19 4-16 9-23 5-8 6-14 13-19 6-8 4-5 5-5 7-8 5-5 7-8 10-8 6-7 14-10 13-9 14-7 7-6 16-8 9-4 14-7 22-8 14-5 8-3 23-5 10-2v-2l14-3 25-3h36l21 1 11 2 13 3 15 3 11 3 13 1 3 2v2l5 2 9 2 7 5 13 4 10 6 10 4 5 4 14 8 8 6 10 5 8 7v2l5 2 11 9 10 10 9 6 6 10 8 7 10 14 7 8 10 14 5 10 8 15 3 5 3 10 3 4 1 10 3 3 2 5-1 4v3l1 5-4 3 2-5-6-12 1-2-1-4-4-9v-2l-4 4-6 10-6 7-8 7-7 8-2 5v10l-9 7-3 2-1-34 1-9-3 7-3-3-2-7v-20l8-7 4-9 1-5v-15l-1-4-2 2-4-13v-2h-5v-1h6 1v-2l-4-1 1-4-5-6v-2l-4-2-3-4v-2h-2l-6-7-8-6-5-7-14-11-8-7-4-4-9-5-10-6-3-3-9-4-8-5-12-5-5-4-24-10-9-3-3-2-21-5-18-5-22-3-26-2-7-1-24 2-27 4-25 6-16 4-7 4-16 5-8 4-12 5-10 5-10 4-18 10-14 9-6 4-8 5-5 4-9 5-3 2-2 6 3 1v17h-1v-16l-6 4v3l-4 4h-4v3l-5 1v3l-4 3h-2l2 13v5l-3 1-1-3v-10h-2v-3l-4 1v2h-2l-2 4-7 10-9 12-6 10-7 10-4 13-5 9-7 26-2 7-4 27v23l2 17 3 12 3 18 1 3v12l-2 13-5 10-6 13-5 9-4 11-3 4h-2l-2 4-8 13-5 5-11 16-6 9v7l7 8 6 3 7 2 9 6 8 8 4 10v14l-4 14-1 8 4 9 9 6 2 1v2l4 2-1 6-8 9-2 3 1 7 8 10 6 8 2 3 3 21v19l4 8 3 7 12 6 9 1h16l9-1 14-3 10-2 10-3 14-3 10-3 14-3 14-4 32-7 24-7 18-8 14-8 7-6 11-9 6-7 5-9h2l2-5 7-13 4-13 5-15 3-2 1 1v18l-3 18-2 10-9 21h-2l-1 5-8 13-8 10h-2l-2 4-3 4h-2l-1 4-9 6-5 5-14 11-8 6-2 3h-2l-2 4-3 7v16l4 15 1 8 5 24 3 28v40l-3 15-4 18-7 17-4 10-7 10-9 13-2 3h-2l-2 4-5 5-6 5-7 8-9 10-4 2-2 4-10 10h-2l-2 4-6 4h-3v-6l5-9 6-10 6-14 5-8 5-13 4-6 4-8 2-9 3-9 6-25 1-4v-10l1-1v-27l-4-24-1-11-3-8-2-14-6-19-2-6-2-1-7-6-14-5-6-1h-10l-19 4-35 3h-22l-15-2-18-6-6-4-5-4v-2h-3l-7-9-4-7v-3l-2-1-4-11-1-5v-36l-4-10-9-12-5-13-1-17-2-8-6-12v-15l2-15 1-7-12-6-15-8-10-9-4-6-4-15v-10l4-12 12-16 8-16 3-5 6-11 4-9 2-6h2l2-10 3-8 2-7 1-8v-19l-2-14-3-19-1-1v-10l-1-12v-30l1-1 3-27 2-9 1-13 2-5 3-11 4-8 8-23 4-8 5-9 4-5 3-5 4-2 2-5 10-15 10-10 1-2h2l1-3 5-5h2v-2l2-1 2-3 16-16 7-4 11-9 5-4h2l1-3 9-5 14-7 8-5 10-5 5-4 19-9 9-3 21-6 16-4 12-2 1-1 16-2 16-3 18-2 14-2z" fill="#EFFCFB"/>
</svg>
